{"asset":{"version":"2.0","generator":"Blockbench 4.10.4 glTF exporter"},"scenes":[{"nodes":[2],"name":"blockbench_export"}],"scene":0,"nodes":[{"rotation":[-0.7071067811865475,0,0,0.7071067811865476],"translation":[0,0.1875,0],"name":"torus","mesh":0},{"rotation":[-0.7071067811865475,0,0,0.7071067811865476],"translation":[0,0.1875,0.0625],"name":"cylinder","mesh":1},{"children":[0,1]}],"bufferViews":[{"buffer":0,"byteOffset":0,"byteLength":3840,"target":34962,"byteStride":12},{"buffer":0,"byteOffset":3840,"byteLength":3840,"target":34962,"byteStride":12},{"buffer":0,"byteOffset":7680,"byteLength":2560,"target":34962,"byteStride":8},{"buffer":0,"byteOffset":10240,"byteLength":960,"target":34963},{"buffer":0,"byteOffset":11200,"byteLength":1200,"target":34962,"byteStride":12},{"buffer":0,"byteOffset":12400,"byteLength":1200,"target":34962,"byteStride":12},{"buffer":0,"byteOffset":13600,"byteLength":800,"target":34962,"byteStride":8},{"buffer":0,"byteOffset":14400,"byteLength":240,"target":34963}],"buffers":[{"byteLength":14640,"uri":"data:application/octet-stream;base64,"}],"accessors":[{"bufferView":0,"componentType":5126,"count":320,"max":[0.10983194410800934,0.029733194038271904,0.09375],"min":[-0.10983194410800934,-0.029733194038271904,-0.09375],"type":"VEC3"},{"bufferView":1,"componentType":5126,"count":320,"max":[0.9306961894035339,0.6425321698188782,0.991578996181488],"min":[-0.9306961894035339,-0.6425321698188782,-0.991578996181488],"type":"VEC3"},{"bufferView":2,"componentType":5126,"count":320,"max":[0.875,0.9288562536239624],"min":[0.0070374999195337296,0],"type":"VEC2"},{"bufferView":3,"componentType":5123,"count":480,"max":[319],"min":[0],"type":"SCALAR"},{"bufferView":4,"componentType":5126,"count":100,"max":[0.10188236087560654,0.07500000298023224,0.09062500298023224],"min":[-0.10188236087560654,0.05000000074505806,-0.09062500298023224],"type":"VEC3"},{"bufferView":5,"componentType":5126,"count":100,"max":[0.9446207880973816,1,1],"min":[-0.9446207880973816,-1,-1],"type":"VEC3"},{"bufferView":6,"componentType":5126,"count":100,"max":[0.8118187785148621,0.8125],"min":[0,0],"type":"VEC2"},{"bufferView":7,"componentType":5123,"count":120,"max":[99],"min":[0],"type":"SCALAR"}],"materials":[{"pbrMetallicRoughness":{"metallicFactor":0,"roughnessFactor":1,"baseColorTexture":{"index":0}},"alphaMode":"MASK","alphaCutoff":0.05,"doubleSided":true}],"textures":[{"sampler":0,"source":0,"name":"texture"}],"samplers":[{"magFilter":9728,"minFilter":9728,"wrapS":33071,"wrapT":33071}],"images":[{"mimeType":"image/png","uri":"data:image/png;base64,"}],"meshes":[{"primitives":[{"mode":4,"attributes":{"POSITION":0,"NORMAL":1,"TEXCOORD_0":2},"indices":3,"material":0}]},{"primitives":[{"mode":4,"attributes":{"POSITION":4,"NORMAL":5,"TEXCOORD_0":6},"indices":7,"material":0}]}]}